<svg width="44" height="44" viewBox="0 0 44 44" fill="none" xmlns="http://www.w3.org/2000/svg">
<g clip-path="url(#clip0_721_3789)">
<path d="M33.6875 0H10.3125C4.61706 0 0 4.61706 0 10.3125V33.6875C0 39.3829 4.61706 44 10.3125 44H33.6875C39.3829 44 44 39.3829 44 33.6875V10.3125C44 4.61706 39.3829 0 33.6875 0Z" fill="#242938"/>
<path d="M14.565 19.2433C14.565 19.6616 14.6102 20.0008 14.6894 20.2496C14.7798 20.4983 14.8929 20.7697 15.0512 21.0638C15.1078 21.1542 15.1304 21.2446 15.1304 21.3238C15.1304 21.4369 15.0625 21.55 14.9155 21.663L14.2032 22.138C14.1014 22.2057 13.9996 22.2398 13.9092 22.2398C13.7961 22.2398 13.683 22.1832 13.5699 22.0815C13.4116 21.9118 13.2759 21.7308 13.1629 21.55C13.0498 21.3577 12.9367 21.1429 12.8123 20.8828C11.9303 21.9232 10.8222 22.4433 9.48792 22.4433C8.53809 22.4433 7.78048 22.1719 7.2264 21.6291C6.67233 21.0863 6.38965 20.3627 6.38965 19.4581C6.38965 18.4968 6.72886 17.7167 7.41863 17.1287C8.1084 16.5407 9.0243 16.2467 10.189 16.2467C10.5734 16.2467 10.9692 16.2806 11.3876 16.3372C11.806 16.3937 12.2356 16.4842 12.688 16.5859V15.7605C12.688 14.9011 12.507 14.3018 12.1565 13.9513C11.7947 13.6007 11.184 13.4311 10.3134 13.4311C9.91761 13.4311 9.51052 13.4764 9.09214 13.5781C8.67376 13.6799 8.2667 13.8043 7.87094 13.9626C7.69 14.0417 7.55433 14.087 7.47516 14.1096C7.39601 14.1322 7.33948 14.1435 7.29424 14.1435C7.13595 14.1435 7.05678 14.0304 7.05678 13.793V13.2389C7.05678 13.058 7.0794 12.9223 7.13595 12.8431C7.19248 12.764 7.29424 12.6848 7.45256 12.6057C7.84832 12.4021 8.32324 12.2325 8.8773 12.0968C9.43137 11.9498 10.0194 11.882 10.6413 11.882C11.9869 11.882 12.9706 12.1873 13.6039 12.7979C14.2258 13.4085 14.5424 14.3357 14.5424 15.5796V19.2433H14.565ZM9.97414 20.962C10.3473 20.962 10.7317 20.8942 11.1388 20.7584C11.5459 20.6228 11.9077 20.3739 12.213 20.0348C12.394 19.8199 12.5296 19.5824 12.5975 19.311C12.6653 19.0396 12.7106 18.7117 12.7106 18.3274V17.8523C12.3827 17.7732 12.0321 17.7054 11.6703 17.6602C11.3084 17.615 10.9579 17.5923 10.6074 17.5923C9.84975 17.5923 9.29568 17.7394 8.92254 18.0446C8.54938 18.3499 8.36846 18.7796 8.36846 19.345C8.36846 19.8765 8.50416 20.2721 8.78684 20.5435C9.05823 20.8263 9.45399 20.962 9.97414 20.962ZM19.0541 22.1832C18.8506 22.1832 18.7148 22.1492 18.6244 22.0701C18.534 22.0022 18.4548 21.8439 18.387 21.6291L15.7297 12.8884C15.6618 12.6622 15.6279 12.5152 15.6279 12.4361C15.6279 12.2551 15.7184 12.1534 15.8993 12.1534H17.0074C17.2222 12.1534 17.3694 12.1873 17.4484 12.2664C17.5388 12.3343 17.6067 12.4926 17.6746 12.7074L19.5742 20.1931L21.3383 12.7074C21.3949 12.4813 21.4626 12.3343 21.5531 12.2664C21.6436 12.1986 21.8019 12.1534 22.0054 12.1534H22.9099C23.1248 12.1534 23.2719 12.1873 23.3623 12.2664C23.4527 12.3343 23.5319 12.4926 23.5771 12.7074L25.3638 20.2835L27.3199 12.7074C27.3878 12.4813 27.467 12.3343 27.5461 12.2664C27.6365 12.1986 27.7836 12.1534 27.9871 12.1534H29.0386C29.2196 12.1534 29.3214 12.2438 29.3214 12.4361C29.3214 12.4926 29.31 12.5491 29.2987 12.617C29.2875 12.6848 29.2648 12.7753 29.2196 12.8997L26.4946 21.6404C26.4267 21.8666 26.3474 22.0136 26.257 22.0815C26.1666 22.1492 26.0195 22.1946 25.8273 22.1946H24.8549C24.64 22.1946 24.4931 22.1605 24.4027 22.0815C24.3121 22.0022 24.233 21.8553 24.1878 21.6291L22.435 14.3357L20.6938 21.6178C20.6372 21.8439 20.5693 21.9909 20.4789 22.0701C20.3884 22.1492 20.2301 22.1832 20.0266 22.1832H19.0541ZM33.5844 22.4885C32.9964 22.4885 32.4084 22.4206 31.843 22.285C31.2777 22.1492 30.8366 22.0022 30.5426 21.8326C30.3617 21.7308 30.2373 21.6177 30.1921 21.516C30.1469 21.4142 30.1242 21.3012 30.1242 21.1994V20.6228C30.1242 20.3852 30.2146 20.2721 30.3843 20.2721C30.4521 20.2721 30.52 20.2835 30.5878 20.3062C30.6556 20.3287 30.7574 20.3739 30.8705 20.4193C31.255 20.5887 31.6733 20.7245 32.1144 20.8149C32.5667 20.9055 33.0076 20.9507 33.46 20.9507C34.1724 20.9507 34.7263 20.8263 35.1108 20.5776C35.4953 20.3287 35.6988 19.9669 35.6988 19.5033C35.6988 19.1867 35.5971 18.9265 35.3936 18.7117C35.1901 18.4968 34.8056 18.3047 34.2514 18.1237L32.6119 17.615C31.7864 17.3549 31.1757 16.9704 30.8026 16.4616C30.4295 15.964 30.2373 15.41 30.2373 14.822C30.2373 14.347 30.3391 13.9287 30.5426 13.5668C30.7461 13.205 31.0174 12.8884 31.3567 12.6396C31.696 12.3795 32.0805 12.1873 32.5327 12.0516C32.9851 11.9159 33.46 11.8594 33.9575 11.8594C34.2062 11.8594 34.4663 11.8707 34.7152 11.9046C34.9752 11.9385 35.2126 11.9838 35.4501 12.029C35.6763 12.0855 35.8911 12.1421 36.0946 12.2099C36.2981 12.2778 36.4564 12.3456 36.5695 12.4134C36.7278 12.5039 36.8409 12.5944 36.9088 12.6961C36.9765 12.7866 37.0106 12.911 37.0106 13.0693V13.6007C37.0106 13.8382 36.9201 13.9626 36.7505 13.9626C36.6599 13.9626 36.513 13.9174 36.3208 13.8269C35.6763 13.5329 34.9525 13.3859 34.1497 13.3859C33.5052 13.3859 32.9964 13.4877 32.6458 13.7025C32.2953 13.9174 32.1144 14.2453 32.1144 14.7089C32.1144 15.0255 32.2274 15.2969 32.4536 15.5117C32.6796 15.7266 33.0982 15.9414 33.6975 16.1336L35.3031 16.6425C36.1171 16.9025 36.7053 17.2643 37.0558 17.728C37.4062 18.1916 37.5759 18.723 37.5759 19.311C37.5759 19.7973 37.4741 20.2383 37.2819 20.6228C37.0784 21.0072 36.8071 21.3464 36.4564 21.6178C36.106 21.9005 35.6875 22.104 35.2014 22.2511C34.6925 22.4094 34.161 22.4885 33.5844 22.4885Z" fill="white"/>
<path fill-rule="evenodd" clip-rule="evenodd" d="M35.722 27.9839C32.0017 30.7316 26.5968 32.1903 21.9493 32.1903C15.4362 32.1903 9.56756 29.7817 5.13499 25.7789C4.78446 25.4623 5.10107 25.0326 5.51945 25.2813C10.3139 28.0629 16.2277 29.7478 22.3451 29.7478C26.4724 29.7478 31.0068 28.8884 35.1792 27.1245C35.801 26.8417 36.3325 27.5315 35.722 27.9839Z" fill="#FF9900"/>
<path fill-rule="evenodd" clip-rule="evenodd" d="M37.2715 26.2199C36.7966 25.6092 34.1281 25.9258 32.9181 26.0728C32.5563 26.1182 32.4998 25.8014 32.8277 25.564C34.9534 24.0715 38.4475 24.5012 38.8547 24.9986C39.2617 25.5075 38.7416 29.0015 36.7514 30.6751C36.446 30.9351 36.1521 30.7993 36.2877 30.4602C36.7401 29.3408 37.7464 26.8191 37.2715 26.2199Z" fill="#FF9900"/>
</g>
<defs>
<clipPath id="clip0_721_3789">
<rect width="44" height="44" fill="white"/>
</clipPath>
</defs>
</svg>
