<svg width="24" height="24" viewBox="0 0 24 24" fill="none" xmlns="http://www.w3.org/2000/svg">
<path d="M4.46967 4.46973C4.76256 4.17684 5.23732 4.17684 5.53022 4.46973L19.5302 18.4697C19.8231 18.7626 19.8231 19.2374 19.5302 19.5303C19.2373 19.8232 18.7626 19.8232 18.4697 19.5303L4.46967 5.53028C4.17678 5.23738 4.17678 4.76262 4.46967 4.46973Z" fill="#1C252E"/>
<path d="M19.5303 4.46973C19.2374 4.17684 18.7627 4.17684 18.4698 4.46973L4.46978 18.4697C4.17689 18.7626 4.17689 19.2374 4.46978 19.5303C4.76268 19.8232 5.23744 19.8232 5.53033 19.5303L19.5303 5.53028C19.8232 5.23738 19.8232 4.76262 19.5303 4.46973Z" fill="#1C252E"/>
</svg>
